<?xml version="1.0" encoding="utf-8"?>
<!-- Generator: Adobe Illustrator 27.5.0, SVG Export Plug-In . SVG Version: 6.00 Build 0)  -->
<svg version="1.1" id="Calque_1" xmlns:sketch="http://www.bohemiancoding.com/sketch/ns"
	 xmlns="http://www.w3.org/2000/svg" xmlns:xlink="http://www.w3.org/1999/xlink" x="0px" y="0px" viewBox="0 0 10 10"
	 style="enable-background:new 0 0 10 10;" xml:space="preserve">
<g>
	<path d="M75,0C72.7,0.2,71,2.4,71,4.7v1.7v16.2c0,0-9.5-12.5-31-12.5S9,22.7,9,22.7V6.5V4.7C9,2.4,7.3,0.2,5,0C2.3-0.2,0,1.9,0,4.5
		v1.9v41.8v1v11c0,0,0,20,40,20s40-20,40-20v-11v-1V6.5V4.5C80,1.9,77.7-0.2,75,0z M56.1,63.8H23.9c-8.9,0-16.1-7.2-16.1-16.1
		c0-8.9,7.2-16.1,16.1-16.1h32.2c8.9,0,16.1,7.2,16.1,16.1C72.2,56.6,65,63.8,56.1,63.8z"/>
	<g>
		<polygon points="13.8,51.7 15.6,51.7 19.5,41.5 17.7,41.5 		"/>
		<path d="M26.3,44.7c-0.2-0.3-0.6-0.6-0.9-0.8c-0.6-0.3-1.4-0.4-2-0.2c-0.2,0.1-0.5,0.1-0.6,0.3c0,0-0.1,0-0.1,0.1l0-0.3h-1.7v9.7
			h1.9v-2.7c0.2,0.1,0.4,0.2,0.7,0.3c0.6,0.2,1.4,0.1,2-0.2c0.4-0.2,0.7-0.5,0.9-0.8c0.2-0.3,0.4-0.7,0.5-1.2
			c0.1-0.4,0.2-0.9,0.2-1.4v-0.1c0-0.5-0.1-1-0.2-1.4C26.7,45.4,26.5,45,26.3,44.7z M22.7,45.9c0.1-0.1,0.1-0.2,0.2-0.2
			c0.1-0.1,0.2-0.2,0.3-0.2c0.1-0.1,0.2-0.1,0.3-0.1c0.3-0.1,0.7-0.1,1,0.1c0.2,0.1,0.3,0.2,0.4,0.4c0.1,0.2,0.2,0.4,0.3,0.6v0
			c0.1,0.3,0.1,0.5,0.1,0.8v0.1c0,0.3,0,0.6-0.1,0.8c-0.1,0.2-0.1,0.5-0.3,0.6c-0.1,0.2-0.2,0.3-0.4,0.4c-0.3,0.2-0.7,0.2-1,0.1
			c-0.1,0-0.2-0.1-0.3-0.2c-0.1-0.1-0.2-0.1-0.2-0.2c-0.1-0.1-0.1-0.1-0.1-0.2V45.9z"/>
		<path d="M38.7,46.3c-0.5,0-0.9,0-1.3,0.1c-0.4,0.1-0.8,0.2-1.1,0.4c-0.3,0.2-0.5,0.5-0.7,0.8c-0.2,0.3-0.3,0.7-0.3,1.1
			c0,0.3,0.1,0.6,0.2,0.9c0.1,0.3,0.3,0.5,0.5,0.7c0.2,0.2,0.5,0.4,0.8,0.5c0.3,0.1,0.7,0.2,1.1,0.2c0.2,0,0.5,0,0.7-0.1
			c0.2,0,0.4-0.1,0.6-0.2c0.1-0.1,0.3-0.1,0.4-0.2c0,0.1,0,0.1,0.1,0.2l0.1,0.2h1.8v-0.4l0-0.2c-0.1-0.2-0.1-0.3-0.1-0.5
			c0-0.2-0.1-0.4-0.1-0.6v-3c0-0.4-0.1-0.8-0.2-1.1c-0.2-0.3-0.4-0.6-0.6-0.8c-0.3-0.2-0.6-0.4-0.9-0.5c-0.7-0.2-1.6-0.2-2.3,0
			c-0.4,0.1-0.7,0.3-0.9,0.5c-0.3,0.2-0.5,0.5-0.6,0.7c-0.1,0.3-0.2,0.6-0.2,0.9l0,0.4h1.9v-0.4c0-0.1,0-0.1,0.1-0.2
			c0-0.1,0.1-0.1,0.2-0.2c0.1-0.1,0.2-0.1,0.3-0.2c0.3-0.1,0.7-0.1,1,0c0.1,0,0.3,0.1,0.3,0.2c0.1,0.1,0.2,0.2,0.2,0.3
			c0,0.1,0.1,0.2,0.1,0.4v0.1H38.7z M39.5,48.7c0,0.1-0.1,0.1-0.2,0.2c-0.1,0.1-0.2,0.2-0.3,0.2c-0.1,0.1-0.3,0.1-0.4,0.2h0
			c-0.3,0.1-0.7,0.1-0.9,0c-0.1,0-0.2-0.1-0.3-0.2c-0.1-0.1-0.1-0.1-0.1-0.2c0-0.1-0.1-0.2-0.1-0.3c0-0.1,0-0.2,0.1-0.3
			c0-0.1,0.1-0.1,0.2-0.2c0.1-0.1,0.3-0.2,0.5-0.2c0.3-0.1,0.6-0.1,0.9-0.1h0.6V48.7z"/>
		<path d="M55,41.9L53.9,43l4.2,4.2c0,0,0.1,0.1,0.1,0.2c0,0.1,0,0.1-0.1,0.2l-4.2,4.2l1.1,1.1l4.2-4.2c0.7-0.7,0.7-1.8,0-2.5
			L55,41.9z"/>
		<path d="M62.1,37.3H29.8v20.4h32.3c2.2,0,3.9-1.8,3.9-3.9V41.2C66,39.1,64.3,37.3,62.1,37.3z M47,56.2H31.3V38.9H47V56.2z
			 M48.5,38.9h13.6c1.3,0,2.4,1.1,2.4,2.4v12.6c0,1.3-1.1,2.4-2.4,2.4H48.5V38.9z"/>
	</g>
</g>
</svg>
