<?xml version="1.0" encoding="utf-8"?>
<!-- Generator: Adobe Illustrator 27.5.0, SVG Export Plug-In . SVG Version: 6.00 Build 0)  -->
<svg version="1.1" id="Calque_1" xmlns="http://www.w3.org/2000/svg" xmlns:xlink="http://www.w3.org/1999/xlink" x="0px" y="0px"
	 viewBox="0 0 60 60" style="enable-background:new 0 0 30 30;" xml:space="preserve">
<style type="text/css">
	.st0{fill:#fff;}
</style>
<path class="st0" d="M1076,0C812.5,0,578.4,169.4,496.8,419.6C327.4,454.5,181.1,560.4,95.4,710.6
	C-36.8,938.7-6.6,1225.5,170.4,1421c-54.7,163.8-35.9,343,51.4,491.4c131.4,228.9,395.7,346.3,654.3,291.7
	c114.6,129.1,279.2,202.7,452,202c263.5,0,497.6-169.4,579.3-419.6c169.7-35,315.7-140.9,400.6-290.8
	c133-228.1,102.7-514.9-74.3-710.6v-0.8c54.7-163.8,35.9-343.1-51.4-492.2c-131.4-228.1-395.7-345.5-653.5-290.9
	C1413.6,72.4,1248.7-0.8,1076,0L1076,0z M1076,156.4l-0.8,0.8c106.1,0,208,36.6,289.6,104.3c-3.3,1.6-9.8,5.7-14.6,8.1L870.3,545.9
	c-24.5,13.8-39.1,39.9-39.1,68.4v648.5l-206.4-119V607.8C624.7,358.8,826.6,156.8,1076,156.4L1076,156.4z M1653.8,345.2
	c161.8-0.3,311.4,85.8,392.2,226c52.2,91.3,71.7,198,53.8,301.4c-3.3-2.4-9.7-5.7-13.8-8.1l-479.6-277.1
	c-24.5-13.8-54.6-13.8-79.1,0L965.1,911.8v-238l464.1-268C1497.5,366.3,1574.9,345.4,1653.8,345.2z M467.4,591.4v569.5
	c0,28.5,14.6,53.8,39.1,68.4l561.2,323.4l-207.2,119.8l-463.4-267.2c-215.6-124.8-289.3-400.5-164.8-615.9
	C285.2,698,368.2,628,467.4,591.4z M1542.6,732.5l464.2,267.2c216.3,124.7,289.6,400.1,164.8,615.9l0.8,0.8
	c-53,91.3-136.3,161.3-234.9,197.2v-569.6c0-28.5-14.6-54.6-39.1-68.4l-562-324.3L1542.6,732.5L1542.6,732.5z M1201.6,928.8
	l236.6,136.8v273l-236.6,136.8L965,1338.6v-273L1201.6,928.8z M1573.6,1143.9l206.4,119v535.3c0,249.3-202.3,451.4-451.2,451.4v-0.8
	c-105.3,0-208-36.7-288.8-104.3c3.3-1.6,10.6-5.7,14.6-8.1l479.6-276.2c24.5-13.8,39.9-39.9,39.1-68.4L1573.6,1143.9L1573.6,1143.9z
	 M1438.9,1494.3v238l-464.2,267.2c-216.3,123.9-491.9,50.6-616.7-164.6h0.8c-53-90.5-71.9-198-53.9-301.4c3.3,2.4,9.8,5.7,13.8,8.1
	l479.6,277.1c24.5,13.8,54.6,13.8,79.1,0L1438.9,1494.3L1438.9,1494.3z"/>
</svg>
