<?xml version="1.0" encoding="utf-8"?>
<!-- Generator: Adobe Illustrator 27.5.0, SVG Export Plug-In . SVG Version: 6.00 Build 0)  -->
<svg version="1.1" id="Calque_1" xmlns="http://www.w3.org/2000/svg" xmlns:xlink="http://www.w3.org/1999/xlink" x="0px" y="0px"
	 viewBox="0 0 648.16 100" style="enable-background:new 0 0 648.16 100;" xml:space="preserve">
<g>
	<path d="M0,68.21l17.81-46.32h4.83L4.86,68.21H0z"/>
	<path d="M33.69,32.85h4.95l0.26,3.46c0.43-0.55,0.9-1.04,1.41-1.48c0.51-0.44,1.05-0.82,1.64-1.13c0.82-0.47,1.73-0.82,2.74-1.07
		c1.01-0.24,2.08-0.37,3.24-0.37c2.03,0,3.83,0.4,5.39,1.2c1.56,0.8,2.87,1.91,3.93,3.34c1.05,1.43,1.86,3.13,2.4,5.11
		c0.55,1.98,0.82,4.16,0.82,6.52v0.62c0,2.27-0.27,4.38-0.82,6.34c-0.55,1.96-1.35,3.67-2.4,5.11c-1.05,1.45-2.36,2.58-3.91,3.4
		s-3.33,1.23-5.32,1.23c-1.21,0-2.34-0.13-3.38-0.38c-1.04-0.25-1.99-0.62-2.83-1.08c-0.51-0.29-0.99-0.62-1.44-0.98
		c-0.45-0.36-0.87-0.76-1.26-1.19v15.23h-5.42V32.85z M54.54,44.02c-0.34-1.4-0.86-2.63-1.57-3.71c-0.72-1.05-1.63-1.89-2.72-2.52
		c-1.09-0.62-2.4-0.94-3.93-0.94c-0.84,0-1.62,0.1-2.33,0.29c-0.71,0.2-1.35,0.48-1.92,0.85c-0.63,0.37-1.18,0.83-1.67,1.38
		c-0.49,0.55-0.92,1.15-1.29,1.82v15.26c0.33,0.59,0.71,1.13,1.14,1.64c0.43,0.51,0.92,0.94,1.46,1.29
		c0.62,0.41,1.32,0.73,2.09,0.97c0.77,0.23,1.63,0.35,2.56,0.35c1.5,0,2.8-0.32,3.9-0.95c1.09-0.63,1.99-1.49,2.7-2.56
		c0.7-1.07,1.23-2.31,1.57-3.72c0.34-1.41,0.51-2.88,0.51-4.42v-0.62C55.05,46.89,54.88,45.42,54.54,44.02z"/>
	<path d="M93.62,32.47c1.08,0.14,1.9,0.32,2.45,0.56l-0.73,5.3c-1.05-0.23-2.06-0.41-3-0.51c-0.95-0.11-1.94-0.16-2.97-0.16
		c-1.33,0-2.53,0.16-3.6,0.48c-1.07,0.32-2.01,0.8-2.81,1.42c-0.72,0.55-1.35,1.22-1.89,2.01c-0.54,0.79-0.98,1.67-1.33,2.65v20.33
		h-5.45v-31.7h5.16l0.23,4.25l0.03,0.79c1.29-1.74,2.84-3.11,4.64-4.12c1.81-1.01,3.86-1.51,6.17-1.51
		C91.49,32.26,92.53,32.33,93.62,32.47z"/>
	<path d="M105.21,42.03c0.66-1.96,1.62-3.67,2.87-5.11c1.23-1.45,2.73-2.58,4.51-3.41c1.78-0.83,3.78-1.25,6.01-1.25
		c2.25,0,4.26,0.42,6.05,1.25c1.79,0.83,3.31,1.97,4.56,3.41c1.23,1.45,2.18,3.15,2.84,5.11c0.66,1.96,1,4.09,1,6.37v0.64
		c0,2.29-0.33,4.41-1,6.36c-0.66,1.95-1.61,3.65-2.84,5.1c-1.25,1.45-2.76,2.58-4.54,3.4c-1.78,0.82-3.78,1.23-6.01,1.23
		c-2.25,0-4.26-0.41-6.05-1.23s-3.3-1.95-4.53-3.4c-1.25-1.45-2.21-3.14-2.87-5.1c-0.66-1.95-1-4.07-1-6.36V48.4
		C104.21,46.12,104.54,43.99,105.21,42.03z M110.19,53.52c0.37,1.42,0.94,2.66,1.7,3.74c0.74,1.07,1.68,1.92,2.81,2.55
		c1.13,0.63,2.45,0.94,3.96,0.94c1.48,0,2.79-0.31,3.91-0.94c1.12-0.62,2.07-1.47,2.83-2.55c0.74-1.07,1.3-2.32,1.67-3.74
		c0.37-1.42,0.56-2.9,0.56-4.47V48.4c0-1.54-0.19-3.02-0.57-4.44c-0.38-1.42-0.94-2.66-1.68-3.74c-0.76-1.07-1.7-1.93-2.83-2.56
		c-1.12-0.63-2.44-0.95-3.94-0.95c-1.5,0-2.81,0.32-3.93,0.95c-1.11,0.63-2.04,1.49-2.78,2.56c-0.76,1.07-1.33,2.32-1.7,3.74
		c-0.37,1.42-0.56,2.9-0.56,4.44v0.64C109.63,50.61,109.81,52.1,110.19,53.52z"/>
	<path d="M144.38,35.83c0.64-1.11,1.49-1.98,2.53-2.61c1.04-0.62,2.31-0.95,3.79-0.97c0.84,0,1.6,0.09,2.27,0.28
		c0.67,0.19,1.26,0.45,1.77,0.81c0.37,0.27,0.71,0.61,1.01,1c0.3,0.39,0.56,0.83,0.78,1.32c0.27-0.45,0.6-0.87,0.97-1.26
		c0.37-0.39,0.77-0.73,1.2-1.03c0.55-0.33,1.16-0.6,1.83-0.79c0.67-0.19,1.41-0.3,2.21-0.32c1.09,0,2.08,0.16,2.96,0.48
		s1.62,0.8,2.23,1.42c0.66,0.7,1.17,1.62,1.52,2.74c0.35,1.12,0.53,2.45,0.53,3.97v23.67h-5.16V40.81c0-0.66-0.08-1.25-0.23-1.76
		c-0.16-0.51-0.38-0.93-0.67-1.26c-0.31-0.31-0.7-0.55-1.16-0.7c-0.46-0.16-0.99-0.23-1.6-0.23c-0.64,0-1.2,0.09-1.67,0.26
		s-0.86,0.41-1.17,0.7c-0.31,0.31-0.56,0.67-0.73,1.07c-0.18,0.4-0.29,0.85-0.35,1.33c0,0.1,0,0.19,0,0.28s0,0.19,0,0.31v23.73
		h-5.16V40.79c0-0.66-0.07-1.25-0.22-1.76c-0.15-0.51-0.38-0.93-0.69-1.26c-0.29-0.31-0.66-0.54-1.1-0.69s-0.95-0.22-1.54-0.22
		c-0.64,0-1.21,0.07-1.68,0.22c-0.48,0.15-0.88,0.36-1.22,0.63c-0.25,0.22-0.47,0.46-0.66,0.73c-0.19,0.27-0.34,0.57-0.45,0.88
		v25.22h-5.16v-31.7h4.86L144.38,35.83z"/>
	<path d="M177.71,32.85h4.95l0.26,3.46c0.43-0.55,0.9-1.04,1.41-1.48c0.51-0.44,1.05-0.82,1.64-1.13c0.82-0.47,1.73-0.82,2.74-1.07
		c1.01-0.24,2.08-0.37,3.24-0.37c2.03,0,3.83,0.4,5.39,1.2c1.56,0.8,2.87,1.91,3.93,3.34c1.05,1.43,1.86,3.13,2.4,5.11
		c0.55,1.98,0.82,4.16,0.82,6.52v0.62c0,2.27-0.27,4.38-0.82,6.34c-0.55,1.96-1.35,3.67-2.4,5.11c-1.05,1.45-2.36,2.58-3.91,3.4
		s-3.33,1.23-5.32,1.23c-1.21,0-2.34-0.13-3.38-0.38c-1.04-0.25-1.99-0.62-2.83-1.08c-0.51-0.29-0.99-0.62-1.44-0.98
		c-0.45-0.36-0.87-0.76-1.26-1.19v15.23h-5.42V32.85z M198.56,44.02c-0.34-1.4-0.86-2.63-1.57-3.71c-0.72-1.05-1.63-1.89-2.72-2.52
		c-1.09-0.62-2.4-0.94-3.93-0.94c-0.84,0-1.62,0.1-2.33,0.29c-0.71,0.2-1.35,0.48-1.92,0.85c-0.63,0.37-1.18,0.83-1.67,1.38
		c-0.49,0.55-0.92,1.15-1.29,1.82v15.26c0.33,0.59,0.71,1.13,1.14,1.64c0.43,0.51,0.92,0.94,1.46,1.29
		c0.62,0.41,1.32,0.73,2.09,0.97c0.77,0.23,1.63,0.35,2.56,0.35c1.5,0,2.8-0.32,3.9-0.95c1.09-0.63,1.99-1.49,2.7-2.56
		c0.7-1.07,1.23-2.31,1.57-3.72c0.34-1.41,0.51-2.88,0.51-4.42v-0.62C199.07,46.89,198.9,45.42,198.56,44.02z"/>
	<path d="M226.58,32.85h12.07v4.19h-12.07v17.23c0,1.23,0.16,2.25,0.47,3.05c0.31,0.8,0.74,1.44,1.29,1.9
		c0.55,0.49,1.18,0.83,1.89,1.03c0.71,0.2,1.47,0.29,2.27,0.29c0.59,0,1.19-0.03,1.82-0.1c0.62-0.07,1.24-0.15,1.85-0.25
		c0.59-0.1,1.14-0.2,1.66-0.31c0.52-0.11,0.94-0.2,1.27-0.28l0.76,3.84c-0.45,0.27-1,0.51-1.64,0.72s-1.35,0.38-2.11,0.51
		c-0.76,0.16-1.57,0.27-2.42,0.35s-1.69,0.12-2.53,0.12c-1.41,0-2.72-0.2-3.94-0.6c-1.22-0.4-2.28-1.04-3.18-1.92
		c-0.9-0.86-1.61-1.98-2.12-3.35c-0.52-1.38-0.78-3.04-0.78-5V37.04h-8.32v-4.19h8.32v-7.68h5.45V32.85z"/>
	<path d="M306.08,63.01c-0.13-0.62-0.22-1.25-0.28-1.92c-0.55,0.55-1.16,1.07-1.83,1.55c-0.67,0.49-1.41,0.92-2.21,1.29
		c-0.82,0.37-1.69,0.66-2.61,0.88c-0.92,0.21-1.89,0.32-2.93,0.32c-1.68,0-3.2-0.24-4.56-0.73c-1.36-0.49-2.5-1.15-3.44-1.99
		c-0.96-0.82-1.69-1.8-2.21-2.94c-0.52-1.14-0.78-2.38-0.78-3.71c0-1.74,0.35-3.26,1.04-4.57c0.69-1.31,1.67-2.4,2.94-3.28
		c1.27-0.86,2.8-1.5,4.58-1.93c1.79-0.43,3.78-0.64,5.99-0.64h5.92v-2.49c0-0.96-0.18-1.82-0.53-2.58s-0.85-1.42-1.49-1.96
		c-0.64-0.53-1.43-0.94-2.36-1.23c-0.93-0.29-1.97-0.44-3.12-0.44c-1.07,0-2.04,0.14-2.89,0.41c-0.85,0.27-1.57,0.63-2.15,1.08
		c-0.59,0.45-1.04,0.98-1.36,1.6s-0.48,1.26-0.48,1.92h-5.45c0.02-1.15,0.32-2.29,0.89-3.4c0.58-1.11,1.41-2.12,2.5-3.02
		c1.07-0.88,2.39-1.59,3.94-2.14c1.55-0.55,3.31-0.82,5.29-0.82c1.8,0,3.47,0.22,5.01,0.66c1.54,0.44,2.88,1.1,4.01,1.98
		c1.11,0.9,1.99,2.01,2.64,3.34c0.64,1.33,0.97,2.88,0.97,4.66v14.74c0,1.05,0.1,2.17,0.29,3.35c0.19,1.18,0.47,2.21,0.82,3.09v0.47
		h-5.65C306.38,64.14,306.21,63.62,306.08,63.01z M299.97,60c0.92-0.27,1.76-0.63,2.52-1.08c0.74-0.45,1.39-0.96,1.93-1.54
		c0.55-0.58,0.98-1.18,1.29-1.8v-6.42h-5.04c-1.88,0-3.51,0.16-4.91,0.48c-1.4,0.32-2.5,0.82-3.33,1.48
		c-0.59,0.47-1.03,1.03-1.33,1.67c-0.3,0.64-0.45,1.38-0.45,2.2c0,0.78,0.13,1.5,0.4,2.17c0.26,0.66,0.66,1.23,1.19,1.7
		c0.53,0.49,1.19,0.87,1.99,1.14c0.8,0.27,1.73,0.41,2.78,0.41S299.05,60.28,299.97,60z"/>
	<path d="M338.13,60.27c0.93-0.31,1.75-0.75,2.48-1.32c0.72-0.55,1.3-1.2,1.74-1.95c0.44-0.75,0.67-1.57,0.69-2.45h5.13
		c-0.02,1.41-0.39,2.75-1.1,4.03c-0.71,1.28-1.67,2.4-2.86,3.35c-1.19,0.98-2.56,1.75-4.1,2.33c-1.54,0.58-3.15,0.86-4.83,0.86
		c-2.4,0-4.5-0.43-6.3-1.29c-1.8-0.86-3.29-2.02-4.48-3.49c-1.21-1.45-2.12-3.12-2.72-5.02c-0.61-1.9-0.91-3.91-0.91-6.02v-1.23
		c0-2.09,0.3-4.09,0.91-6.01c0.6-1.91,1.51-3.6,2.72-5.07c1.19-1.45,2.68-2.6,4.48-3.46c1.8-0.86,3.9-1.29,6.3-1.29
		c1.88,0,3.6,0.3,5.17,0.89c1.57,0.6,2.93,1.4,4.09,2.42c1.13,1.04,2.02,2.26,2.67,3.66s0.97,2.91,0.97,4.51h-5.13
		c-0.02-0.96-0.23-1.86-0.63-2.71c-0.4-0.85-0.94-1.6-1.63-2.24c-0.68-0.64-1.5-1.15-2.45-1.52c-0.95-0.37-1.97-0.56-3.06-0.56
		c-1.68,0-3.09,0.34-4.23,1.01s-2.07,1.55-2.77,2.62c-0.7,1.09-1.21,2.31-1.51,3.66c-0.3,1.35-0.45,2.71-0.45,4.07v1.23
		c0,1.39,0.15,2.76,0.45,4.12c0.3,1.36,0.81,2.57,1.51,3.65c0.68,1.09,1.6,1.98,2.74,2.65s2.56,1.01,4.26,1.01
		C336.25,60.74,337.2,60.58,338.13,60.27z"/>
	<path d="M378.09,63.01c-0.13-0.62-0.22-1.25-0.28-1.92c-0.55,0.55-1.16,1.07-1.83,1.55c-0.67,0.49-1.41,0.92-2.21,1.29
		c-0.82,0.37-1.69,0.66-2.61,0.88c-0.92,0.21-1.89,0.32-2.93,0.32c-1.68,0-3.2-0.24-4.56-0.73c-1.36-0.49-2.5-1.15-3.44-1.99
		c-0.96-0.82-1.7-1.8-2.21-2.94c-0.52-1.14-0.78-2.38-0.78-3.71c0-1.74,0.35-3.26,1.04-4.57c0.69-1.31,1.67-2.4,2.94-3.28
		c1.27-0.86,2.8-1.5,4.58-1.93c1.79-0.43,3.78-0.64,5.99-0.64h5.92v-2.49c0-0.96-0.18-1.82-0.53-2.58s-0.85-1.42-1.49-1.96
		c-0.64-0.53-1.43-0.94-2.36-1.23c-0.93-0.29-1.97-0.44-3.12-0.44c-1.07,0-2.04,0.14-2.89,0.41c-0.85,0.27-1.57,0.63-2.15,1.08
		c-0.59,0.45-1.04,0.98-1.36,1.6s-0.48,1.26-0.48,1.92h-5.45c0.02-1.15,0.32-2.29,0.89-3.4c0.58-1.11,1.41-2.12,2.5-3.02
		c1.07-0.88,2.39-1.59,3.94-2.14c1.55-0.55,3.31-0.82,5.29-0.82c1.8,0,3.47,0.22,5.01,0.66c1.54,0.44,2.88,1.1,4.01,1.98
		c1.11,0.9,1.99,2.01,2.64,3.34c0.64,1.33,0.97,2.88,0.97,4.66v14.74c0,1.05,0.1,2.17,0.29,3.35c0.19,1.18,0.47,2.21,0.82,3.09v0.47
		h-5.65C378.39,64.14,378.22,63.62,378.09,63.01z M371.98,60c0.92-0.27,1.76-0.63,2.52-1.08c0.74-0.45,1.39-0.96,1.93-1.54
		c0.55-0.58,0.98-1.18,1.29-1.8v-6.42h-5.04c-1.88,0-3.51,0.16-4.91,0.48c-1.4,0.32-2.5,0.82-3.33,1.48
		c-0.59,0.47-1.03,1.03-1.33,1.67c-0.3,0.64-0.45,1.38-0.45,2.2c0,0.78,0.13,1.5,0.4,2.17c0.26,0.66,0.66,1.23,1.19,1.7
		c0.53,0.49,1.19,0.87,1.99,1.14c0.8,0.27,1.73,0.41,2.78,0.41S371.06,60.28,371.98,60z"/>
	<path d="M393.65,41.91c0.6-1.98,1.45-3.69,2.56-5.11c1.09-1.43,2.42-2.54,3.98-3.34c1.56-0.8,3.31-1.2,5.24-1.2
		c1.89,0,3.55,0.32,4.97,0.95c1.42,0.63,2.64,1.56,3.68,2.77V19.55h5.42v45h-4.98l-0.23-3.34c-1.05,1.29-2.31,2.27-3.78,2.93
		c-1.46,0.66-3.17,1-5.13,1c-1.92,0-3.65-0.41-5.2-1.23s-2.88-1.95-3.97-3.4c-1.09-1.45-1.94-3.15-2.55-5.11
		c-0.61-1.96-0.91-4.08-0.91-6.34v-0.62C392.75,46.07,393.05,43.9,393.65,41.91z M398.67,53.44c0.33,1.39,0.85,2.61,1.55,3.66
		c0.68,1.05,1.56,1.89,2.64,2.5c1.07,0.62,2.36,0.92,3.87,0.92c1.82,0,3.32-0.41,4.51-1.23c1.19-0.82,2.14-1.92,2.84-3.31V41.28
		c-0.7-1.29-1.65-2.35-2.84-3.18c-1.19-0.83-2.68-1.25-4.45-1.25c-1.52,0-2.83,0.31-3.91,0.94c-1.08,0.63-1.97,1.46-2.65,2.52
		c-0.7,1.07-1.22,2.31-1.55,3.71c-0.33,1.4-0.5,2.87-0.5,4.41v0.62C398.17,50.59,398.34,52.06,398.67,53.44z"/>
	<path d="M437.65,63.99c-1.87-0.76-3.46-1.83-4.79-3.19c-1.33-1.37-2.36-2.99-3.11-4.86c-0.74-1.88-1.11-3.92-1.11-6.12v-1.23
		c0-2.56,0.41-4.85,1.23-6.87s1.91-3.74,3.28-5.14c1.35-1.39,2.89-2.45,4.61-3.19c1.73-0.74,3.5-1.11,5.32-1.11
		c2.29,0,4.28,0.4,5.99,1.19c1.71,0.79,3.13,1.88,4.26,3.27c1.13,1.41,1.98,3.06,2.53,4.95c0.56,1.89,0.83,3.95,0.83,6.15v2.43
		h-22.65v0.21c0.14,1.54,0.44,2.9,0.92,4.07c0.48,1.17,1.14,2.21,1.98,3.11c0.86,0.96,1.89,1.71,3.11,2.26
		c1.21,0.55,2.55,0.82,4.01,0.82c1.93,0,3.65-0.39,5.16-1.17c1.5-0.78,2.75-1.82,3.75-3.11l3.31,2.58c-1.05,1.6-2.63,3.02-4.73,4.26
		c-2.1,1.24-4.69,1.86-7.78,1.86C441.56,65.13,439.52,64.75,437.65,63.99z M439.98,37.31c-0.98,0.4-1.86,0.98-2.64,1.74
		c-0.78,0.78-1.44,1.73-1.98,2.86c-0.54,1.12-0.91,2.42-1.13,3.88h17.05v-0.26c0-0.98-0.19-2.03-0.56-3.15
		c-0.37-1.12-0.89-2.09-1.55-2.92c-0.66-0.82-1.5-1.48-2.5-1.99c-1.01-0.51-2.2-0.76-3.59-0.76
		C441.99,36.71,440.96,36.91,439.98,37.31z"/>
	<path d="M468.43,35.83c0.64-1.11,1.49-1.98,2.53-2.61c1.04-0.62,2.31-0.95,3.79-0.97c0.84,0,1.6,0.09,2.27,0.28
		c0.67,0.19,1.26,0.45,1.77,0.81c0.37,0.27,0.71,0.61,1.01,1c0.3,0.39,0.56,0.83,0.78,1.32c0.27-0.45,0.6-0.87,0.97-1.26
		c0.37-0.39,0.77-0.73,1.2-1.03c0.55-0.33,1.16-0.6,1.83-0.79c0.67-0.19,1.41-0.3,2.21-0.32c1.09,0,2.08,0.16,2.96,0.48
		s1.62,0.8,2.23,1.42c0.66,0.7,1.17,1.62,1.52,2.74c0.35,1.12,0.53,2.45,0.53,3.97v23.67h-5.16V40.81c0-0.66-0.08-1.25-0.23-1.76
		c-0.16-0.51-0.38-0.93-0.67-1.26c-0.31-0.31-0.7-0.55-1.16-0.7c-0.46-0.16-0.99-0.23-1.6-0.23c-0.64,0-1.2,0.09-1.67,0.26
		s-0.86,0.41-1.17,0.7c-0.31,0.31-0.56,0.67-0.73,1.07c-0.18,0.4-0.29,0.85-0.35,1.33c0,0.1,0,0.19,0,0.28s0,0.19,0,0.31v23.73
		h-5.16V40.79c0-0.66-0.07-1.25-0.22-1.76c-0.15-0.51-0.38-0.93-0.69-1.26c-0.29-0.31-0.66-0.54-1.1-0.69s-0.95-0.22-1.54-0.22
		c-0.64,0-1.21,0.07-1.68,0.22c-0.48,0.15-0.88,0.36-1.22,0.63c-0.25,0.22-0.47,0.46-0.66,0.73c-0.19,0.27-0.34,0.57-0.45,0.88
		v25.22h-5.16v-31.7h4.86L468.43,35.83z"/>
	<path d="M502.56,77.17c-0.68-0.12-1.2-0.21-1.55-0.29l0.88-4.42c0.49,0.04,0.97,0.07,1.45,0.1c0.48,0.03,0.85,0.04,1.13,0.04
		c0.74,0,1.42-0.21,2.04-0.62s1.17-0.9,1.66-1.46c0.47-0.57,0.87-1.15,1.22-1.76c0.34-0.61,0.61-1.1,0.81-1.49l2.17-4.22
		l-13.65-30.21h6.06l8.7,20.45l1.41,3.84l1.49-3.72l8.17-20.57h6.06l-16.08,36.59c-0.37,0.82-0.85,1.69-1.42,2.61
		c-0.58,0.92-1.27,1.77-2.09,2.55s-1.78,1.44-2.87,1.96c-1.09,0.53-2.35,0.79-3.78,0.79C503.84,77.35,503.24,77.29,502.56,77.17z"/>
</g>
<path d="M625.72,100H257.66V0h368.06c12.37,0,22.44,10.07,22.44,22.44v55.12C648.16,89.94,638.1,100,625.72,100z M262.66,95h363.06
	c9.62,0,17.44-7.82,17.44-17.44V22.44c0-9.62-7.82-17.44-17.44-17.44H262.66V95z"/>
<rect x="547.66" y="1" width="5" height="98"/>
<path d="M588.75,74.12l-3.54-3.54l19.84-19.85c0.46-0.46,0.72-1.08,0.72-1.74s-0.26-1.27-0.72-1.74l-19.84-19.85l3.54-3.54
	l19.84,19.85c1.41,1.41,2.18,3.28,2.18,5.27c0,1.99-0.78,3.86-2.18,5.27L588.75,74.12z"/>
<path d="M588.75,74.12l-3.54-3.54l19.84-19.85c0.46-0.46,0.72-1.08,0.72-1.74s-0.26-1.27-0.72-1.74l-19.84-19.85l3.54-3.54
	l19.84,19.85c1.41,1.41,2.18,3.28,2.18,5.27c0,1.99-0.78,3.86-2.18,5.27L588.75,74.12z"/>
</svg>
